<?xml version="1.0" encoding="UTF-8" standalone="no"?>
<svg
   width="512"
   height="512"
   viewBox="0 0 512 512"
   version="1.1"
   id="svg1"
   xml:space="preserve"
   xmlns="http://www.w3.org/2000/svg"
   xmlns:svg="http://www.w3.org/2000/svg">
  <defs
   id="defs1" />
     <g
   id="layer1"><path
     style="fill:#1f94ad;fill-opacity:1"
     d="m 200.70243,450.74746 c 0,-0.26376 1.9816,-4.94891 4.40356,-10.41145 l 4.40356,-9.9319 -2.48703,-5.33854 c -3.51481,-7.54474 -15.32009,-35.44329 -15.32009,-36.20486 0,-0.34853 2.18719,-0.63369 4.86043,-0.63369 h 4.86044 l 5.0846,12.25 c 2.79653,6.7375 5.69346,13.79719 6.43762,15.68819 l 1.35301,3.4382 4.12344,-9.9382 c 2.26789,-5.466 5.09109,-12.52569 6.27379,-15.68819 l 2.15036,-5.75 h 5.26023 5.26023 l -12.65848,29.75 c -6.96217,16.3625 -12.94748,30.5375 -13.30069,31.5 -0.49531,1.34969 -1.79312,1.75 -5.6736,1.75 -2.76726,0 -5.03138,-0.21581 -5.03138,-0.47956 z m -88.6418,-17.41574 c -5.12437,-1.31762 -10.31127,-5.07011 -13.08782,-9.46844 -3.11533,-4.935 -4.269458,-16.07901 -2.287248,-22.08516 3.470998,-10.51723 15.208428,-16.79053 27.170708,-14.52193 6.98027,1.32378 12.10303,4.84664 15.51572,10.66996 2.36936,4.04301 2.78183,5.85624 2.79168,12.27239 0.0162,10.54283 -3.58813,16.98109 -11.88885,21.23673 -4.32639,2.21806 -13.32114,3.15459 -18.21419,1.89645 z m 14.34325,-10.06422 c 4.14808,-2.52923 6.29855,-6.80485 6.29855,-12.52294 0,-10.15633 -5.93343,-16.16275 -15.09658,-15.28228 -10.4881,1.00777 -16.26745,12.79862 -11.06011,22.56447 3.70551,6.94931 13.02311,9.40831 19.85814,5.24075 z m 211.38443,10.29256 c -3.05259,-0.65141 -8.91974,-4.37285 -11.78816,-7.47704 -5.73171,-6.20285 -7.00498,-17.69426 -2.9203,-26.356 4.1502,-8.80068 10.733,-12.78786 21.20367,-12.84299 11.42886,-0.0602 21.45439,7.72832 22.97161,17.84587 2.38553,15.90782 -6.26615,28.04283 -20.6351,28.9432 -3.52968,0.22117 -7.50396,0.1703 -8.83172,-0.11304 z m 15.93893,-12.12256 c 4.9714,-4.9714 6.0797,-10.94795 3.21701,-17.34779 -2.68396,-6.00026 -5.34068,-8.06969 -11.06609,-8.61983 -10.82954,-1.04058 -17.84291,7.63909 -15.17126,18.77578 1.76278,7.3481 6.27831,10.98136 13.64797,10.98136 5.12831,0 5.89138,-0.30854 9.37237,-3.78952 z m -208.02481,11.23538 c 0,-0.30477 3.39762,-5.54715 7.55027,-11.64972 l 7.55028,-11.0956 -7.05028,-10.26379 c -3.87765,-5.64508 -7.05027,-10.5277 -7.05027,-10.85027 0,-0.32257 2.40897,-0.58648 5.35328,-0.58648 h 5.35328 l 4.79782,7.21525 4.79782,7.21525 1.5989,-2.44245 c 8.07349,-12.33288 7.08973,-11.46141 13.30538,-11.78666 l 5.70648,-0.2986 -6.95515,10.2986 c -3.82533,5.66423 -6.95575,10.77384 -6.95648,11.35468 -7.3e-4,0.58083 2.95553,5.30583 6.56947,10.5 9.68809,13.92426 9.46225,12.94393 2.98184,12.94393 h -5.51773 l -5.43426,-8.11684 -5.43427,-8.11684 -5.33319,8.09432 -5.33319,8.09431 -5.25,0.0225 c -2.8875,0.0124 -5.25,-0.22683 -5.25,-0.53161 z m 98,-21.94586 v -22.5 h 4.5 c 4.13333,0 4.5,0.2037 4.5,2.5 0,2.85556 1.1645,3.21164 3.05472,0.93406 5.33543,-6.42881 20.42986,-6.00268 24.00508,0.67768 l 1.11909,2.09104 2.66055,-2.4792 c 4.10738,-3.82741 6.5471,-4.72389 12.84482,-4.71985 4.06793,0.003 6.81055,0.61026 9.12591,2.0219 5.3335,3.25174 6.36729,7.22257 6.95759,26.72437 l 0.52215,17.25 h -5.14496 -5.14495 v -15.7775 c 0,-15.99843 -0.57399,-18.77109 -4.44204,-21.45719 -2.28565,-1.58724 -8.45399,-0.7588 -11.05455,1.48469 -3.50852,3.02676 -4.45124,7.86712 -4.47956,23 l -0.0238,12.75 h -4.41396 -4.41397 l -0.33662,-16.25 c -0.37791,-18.24332 -1.03136,-20.32093 -6.72746,-21.38952 -4.44831,-0.83451 -7.90233,0.46708 -10.50584,3.95895 -1.88414,2.52704 -2.13538,4.41973 -2.42255,18.25 l -0.32039,15.43057 h -4.92961 -4.9296 z m 132,0 v -22.5 h 4.5 c 4.13333,0 4.5,0.2037 4.5,2.5 0,2.66444 1.44416,3.39087 2.30118,1.15751 1.68905,-4.4016 16.6793,-6.30558 22.00388,-2.79481 5.07299,3.34488 6.09966,5.85012 6.39758,15.61126 0.15152,4.96432 0.41371,13.41354 0.58264,18.77604 l 0.30715,9.75 h -4.72892 -4.72892 l -0.31729,-16.58888 -0.3173,-16.58888 -2.80577,-2.41112 c -4.33909,-3.72878 -9.96583,-3.33952 -14.29423,0.98888 l -3.4,3.4 -0.11849,14.35 c -0.0652,7.8925 -0.0454,14.9125 0.0438,15.6 0.11119,0.85623 -1.42654,1.25 -4.88152,1.25 h -5.04383 z m -135.5,-62.53002 c -34.85861,-3.94503 -67.96267,-21.2037 -92.01634,-47.97236 -16.42639,-18.28047 -28.54804,-42.46569 -34.10681,-68.0502 -2.59574,-11.94698 -2.63893,-44.15357 -0.0737,-54.94742 5.08382,-21.39141 11.37891,-36.44329 21.60719,-51.66387 22.43411,-33.38393 54.4291,-54.799583 94.08965,-62.978334 11.77314,-2.427844 41.18341,-2.412661 52.5,0.0271 12.75416,2.749693 24.28987,6.501633 34.13481,11.102197 9.5816,4.477509 23.36519,12.899725 23.36519,14.276887 0,1.09369 -10.33793,11.23601 -11.45271,11.23601 -0.4894,0 -1.60025,-0.62477 -2.46855,-1.38837 -3.13854,-2.76008 -18.76565,-10.585274 -27.07874,-13.559531 -4.675,-1.672621 -13.16307,-3.998225 -18.86238,-5.16801 -9.09047,-1.865821 -12.52727,-2.05915 -28,-1.575069 -17.67928,0.553115 -22.32037,1.293376 -35.8012,5.710342 -35.77376,11.721198 -65.85365,40.636598 -79.77689,76.688438 -6.27796,16.25571 -7.87305,25.46149 -7.84779,45.29221 0.0208,16.30026 0.23194,18.29028 3.0805,29.02759 6.41017,24.16238 17.40171,43.39744 34.59097,60.53376 18.04667,17.99111 38.02308,29.02386 63.61679,35.13485 9.4833,2.26432 42.34506,2.56808 51,0.47142 22.80362,-5.52418 40.64675,-14.29974 57.6325,-28.34466 19.18516,-15.86355 34.68425,-40.62662 41.51123,-66.32296 3.03542,-11.42515 3.19089,-12.91018 3.24562,-31 0.0555,-18.34165 -0.0524,-19.39851 -3.11283,-30.50078 -4.53621,-16.45576 -9.33528,-27.21364 -17.93963,-40.21455 -3.47894,-5.25657 -4.23219,-7.103 -3.46757,-8.5 1.26854,-2.31768 9.96662,-10.79267 10.49139,-10.22231 2.2181,2.41083 12.44862,18.59469 15.16773,23.99412 27.40012,54.40937 18.70526,117.69224 -22.38619,162.93106 -20.22505,22.26637 -48.46836,38.12841 -78.46432,44.06724 -11.56758,2.29024 -31.89649,3.19195 -43.17793,1.9152 z m 0.5,-51.6626 c -27.2124,-4.57439 -50.8007,-22.51844 -61.54845,-46.82101 -7.30123,-16.50938 -10.51236,-37.64861 -8.55648,-56.32833 4.42339,-42.24582 26.73862,-70.02586 64.10493,-79.80367 9.45738,-2.47476 32.94267,-2.45633 43,0.0337 9.48017,2.34717 22.82713,8.48606 29.6501,13.63746 2.89525,2.18593 5.64897,3.97442 6.11939,3.97442 0.47042,0 4.64274,-3.9375 9.27183,-8.75 4.62909,-4.8125 14.25683,-14.71481 21.39497,-22.00512 l 12.97844,-13.255124 -4.81192,-4.885379 -4.81192,-4.885378 6.85455,-1.118947 c 30.32114,-4.949661 30.76496,-4.984493 29.94396,-2.350057 -0.575,1.845081 -1.86583,10.127374 -3.77946,24.250005 -0.63346,4.675 -1.29064,8.67829 -1.46039,8.89621 -0.16976,0.21792 -2.3328,-1.46958 -4.80676,-3.75 -2.47396,-2.28042 -4.92285,-4.14621 -5.44197,-4.14621 -0.94859,0 -43.35901,43.36258 -43.87847,44.86359 -0.1527,0.44125 1.2921,3.40909 3.21067,6.59519 13.93908,23.14815 17.41976,59.11103 8.52109,88.04122 -9.09105,29.55564 -32.06667,50.93621 -61.16195,56.91588 -7.16567,1.47269 -28.13794,2.01008 -34.79216,0.8915 z m 26.2698,-25.77666 c 21.86475,-4.63324 38.41144,-25.17994 41.29745,-51.28072 l 0.69108,-6.25 h -10.43804 c -6.80849,0 -11.00869,-0.43466 -12.07917,-1.25 -0.90262,-0.6875 -3.05146,-5.68967 -4.77521,-11.11592 -1.72374,-5.42625 -3.48682,-9.47625 -3.91794,-9 -0.43112,0.47625 -2.22751,5.59092 -3.99198,11.36592 -1.76447,5.775 -4.99177,16.35 -7.17179,23.5 -5.71171,18.73327 -6.11847,19.5 -10.34497,19.5 -2.53752,0 -3.87935,-0.61553 -4.90494,-2.25 -0.7765,-1.2375 -4.87427,-12.5999 -9.10617,-25.24978 -4.23189,-12.64988 -7.86078,-23.16621 -8.0642,-23.36963 -0.20341,-0.20342 -2.15858,3.44839 -4.3448,8.11513 -2.18623,4.66674 -4.7192,8.77057 -5.62883,9.11963 -0.90963,0.34905 -6.16891,0.63465 -11.6873,0.63465 h -10.03344 l 0.68824,5.50852 c 2.71811,21.75498 14.20205,40.10387 29.91495,47.79773 11.09118,5.43082 21.86677,6.77374 33.89706,4.22447 z m -0.42052,-83.87256 c 3.30383,-10.91301 6.78405,-20.70051 7.73383,-21.75 2.08906,-2.30839 5.69894,-2.47816 7.46429,-0.35105 1.21959,1.46952 4.56535,11.12162 9.94596,28.69289 l 2.37318,7.75 h 7.61683 7.61684 l -0.76899,-8.25 c -3.18393,-34.15845 -23.45141,-55.75 -52.33122,-55.75 -29.57645,0 -50.23721,21.92943 -53.15241,56.41624 l -0.64107,7.58376 h 7.65567 7.65566 l 6.5608,-13.23408 c 3.60844,-7.27874 7.09192,-13.57185 7.74107,-13.98469 1.86509,-1.18613 6.3386,-0.90365 7.42367,0.46877 0.54355,0.6875 4.25933,11.15 8.25729,23.25 3.99795,12.1 7.5064,22.41277 7.79655,22.91726 0.29015,0.5045 1.544,-2.4205 2.78632,-6.5 1.24232,-4.07949 4.9619,-16.34609 8.26573,-27.2591 z"
     id="path1" /></g></svg>
