<?xml version="1.0" encoding="UTF-8" standalone="no"?>
<!-- Created with Inkscape (http://www.inkscape.org/) -->

<svg
   width="512"
   height="512"
   viewBox="0 0 135.46669 135.46669"
   version="1.1"
   id="svg1"
   xml:space="preserve"
   xmlns="http://www.w3.org/2000/svg"
   xmlns:svg="http://www.w3.org/2000/svg"><defs
     id="defs1" /><g
     id="layer1"
     transform="matrix(1.2231779,0,0,1.2231779,-15.010495,-14.692341)"
     style="stroke-width:11.0209;stroke-dasharray:none"><path
       style="fill:none;stroke:#d9262d;stroke-width:22.7139;stroke-linecap:butt;stroke-linejoin:miter;stroke-dasharray:none;stroke-opacity:1;paint-order:markers fill stroke"
       id="path13"
       d="m 109.27177,57.776581 a 42.720085,42.7201 0 0 1 -1.48142,24.221067" /><path
       style="fill:none;stroke:#d98726;stroke-width:22.7139;stroke-linecap:butt;stroke-linejoin:miter;stroke-dasharray:none;stroke-opacity:1;paint-order:markers fill stroke"
       id="path12"
       d="m 106.67334,50.010683 a 42.720085,42.7201 0 0 1 2.59843,7.765898" /><path
       style="fill:none;stroke:#d9d726;stroke-width:22.7139;stroke-linecap:butt;stroke-linejoin:miter;stroke-dasharray:none;stroke-opacity:1;paint-order:markers fill stroke"
       id="path11"
       d="m 102.64084,42.883271 a 42.720085,42.7201 0 0 1 4.0325,7.127412" /><path
       style="fill:none;stroke:#67d926;stroke-width:22.7139;stroke-linecap:butt;stroke-linejoin:miter;stroke-dasharray:none;stroke-opacity:1;paint-order:markers fill stroke"
       id="path6"
       d="m 88.096354,29.878991 a 42.720085,42.7201 0 0 1 14.544486,13.00428" /><path
       style="fill:none;stroke:#d9d726;stroke-width:22.7139;stroke-linecap:butt;stroke-linejoin:miter;stroke-dasharray:none;stroke-opacity:1;paint-order:markers fill stroke"
       id="path10"
       d="m 67.646599,24.666412 a 42.720085,42.7201 0 0 1 20.449755,5.212579" /><path
       style="fill:none;stroke:#d98726;stroke-width:22.7139;stroke-linecap:butt;stroke-linejoin:miter;stroke-dasharray:none;stroke-opacity:1;paint-order:markers fill stroke"
       id="path5"
       d="M 37.970734,36.656245 A 42.720085,42.7201 0 0 1 67.646599,24.666412" /><path
       style="fill:none;stroke:#d9262d;stroke-width:22.7139;stroke-linecap:butt;stroke-linejoin:miter;stroke-dasharray:none;stroke-opacity:1;paint-order:markers fill stroke"
       id="path4"
       d="M 27.50285,81.997648 A 42.720085,42.7201 0 0 1 37.970734,36.656245" /></g></svg>
